<svg width="260" height="267" viewBox="0 0 260 267" fill="none" xmlns="http://www.w3.org/2000/svg">
<circle cx="130" cy="137" r="130" fill="#2B333C" fill-opacity="0.8"/>
<circle cx="125" cy="125" r="125" fill="#5B99F0"/>
<path d="M153.156 79.567V64H133.829V79.4433H116.433V64H97.107V79.4433H81V98.7698H97.107V149.231H81V168.557H97.107V184H116.433V168.557H133.829V184H153.156V168.433C166.91 167.14 177.71 155.534 177.71 141.447C177.71 134.806 175.307 128.719 171.328 124C175.306 119.281 177.71 113.194 177.71 106.554C177.71 92.4661 166.91 80.859 153.156 79.567V79.567ZM150.6 98.7691C154.892 98.7691 158.384 102.261 158.384 106.553C158.384 110.845 154.892 114.337 150.6 114.337H116.433V98.7691H150.6ZM150.6 149.23H116.433V133.663H150.6C154.892 133.663 158.384 137.155 158.384 141.446C158.384 145.739 154.892 149.23 150.6 149.23Z" fill="white"/>
</svg>
