<svg width="361" height="351" viewBox="0 0 361 351" fill="none" xmlns="http://www.w3.org/2000/svg">
<path d="M41.36 239.143L26.1493 222.372C22.24 218.051 18.2747 213.779 14.3187 209.498C12.9427 210.612 11.564 211.726 10.192 212.843L10.82 205.71C11.9827 206.976 13.152 208.236 14.3187 209.498C20.236 204.704 26.1667 199.928 31.9973 195.024C39.2027 189.004 46.472 183.066 53.5907 176.934L64.3173 167.798L74.944 158.534C78.5 155.464 81.988 152.307 85.5013 149.183C89.0173 146.062 92.4827 142.875 95.9387 139.675C91.996 142.252 88.0653 144.84 84.1853 147.496C80.3027 150.147 76.392 152.764 72.552 155.471L60.9893 163.535L49.5253 171.726C41.8493 177.146 34.3267 182.758 26.7387 188.29C19.132 193.796 11.6827 199.504 4.164 205.124L0 208.236L3.536 212.258C8.52 217.926 13.4507 223.64 18.4787 229.27L33.5427 246.171L36.656 249.666L43.3013 241.28L41.36 239.143Z" fill="#009157"/>
<path d="M10.1913 212.844C11.5633 211.725 12.942 210.613 14.318 209.498C13.1513 208.236 11.9833 206.976 10.8193 205.71L10.1913 212.844Z" fill="#009157"/>
<path d="M141.798 326.454L128.715 337.67C129.622 338.726 130.545 339.763 131.449 340.819L125.391 340.519L128.715 337.67C124.701 332.999 120.681 328.335 116.611 323.712L101.698 306.678C96.7355 300.988 91.7555 295.318 86.7355 289.687L86.2875 289.183L55.9075 271.175L63.7635 279.89L78.9875 296.65C84.0581 302.24 89.1701 307.792 94.2981 313.33L109.658 329.968C114.761 335.527 119.911 341.043 125.093 346.532L128.138 349.759L131.151 346.832L146.659 331.779L150.961 327.514L144.851 323.891L141.798 326.454Z" fill="#009157"/>
<path d="M131.449 340.82C130.545 339.764 129.622 338.726 128.717 337.67L125.391 340.518L131.449 340.82Z" fill="#009157"/>
<path d="M218 7.99999C219.448 9.67632 220.925 11.3259 222.377 13L228 8.46589L218 7.99999Z" fill="#009157"/>
<path d="M351 145C349.337 146.943 347.668 148.879 346 150.819C347.497 152.879 348.991 154.934 350.48 157L351 145Z" fill="#009157"/>
<path d="M356.976 147.766C352.267 142.5 347.611 137.187 342.859 131.962L328.621 116.267L322.367 109.371L316.837 119.006L320.867 123.367L335.249 138.928C338.921 142.907 342.64 146.838 346.355 150.775C347.619 149.643 348.887 148.514 350.148 147.38L349.753 154.379C348.624 153.175 347.491 151.976 346.355 150.775C338.096 158.17 329.808 165.532 321.644 173.038C312.208 181.664 302.704 190.215 293.361 198.951L288.307 203.806L274.347 216.971C269.68 221.343 265.084 225.798 260.463 230.223C255.837 234.643 251.267 239.126 246.708 243.622C251.787 239.723 256.855 235.811 261.868 231.835C266.885 227.864 271.929 223.926 276.899 219.903L291.857 207.883L297.703 203.934C307.639 195.88 317.411 187.64 327.255 179.479C337.116 171.342 346.813 163.012 356.581 154.766L360.373 151.564L356.976 147.766Z" fill="#009157"/>
<path d="M284.054 65.9636L269.657 50.4156C264.863 45.2289 260.026 40.0796 255.177 34.9449L240.645 19.5196C235.818 14.3623 230.943 9.2476 226.038 4.1636L222.906 0.918272L220.017 3.8836L216.337 7.6596C215.115 8.92494 213.87 10.1636 212.669 11.4503L205.479 19.1876C204.695 20.0743 203.917 20.9663 203.131 21.8489L206.791 24.8729C207.562 24.3103 208.342 23.7543 209.114 23.1943L217.514 16.7903C218.91 15.7196 220.265 14.6023 221.641 13.5089L222.37 12.9249C221.497 11.9249 220.607 10.9383 219.735 9.93561L225.757 10.2129L222.37 12.9249C226.142 17.2463 229.922 21.5623 233.749 25.8343L247.837 41.6649C252.525 46.9489 257.229 52.2183 261.974 57.4503L264.435 60.1676L294.59 77.4396L284.054 65.9636Z" fill="#009157"/>
<path d="M95.9212 168.951C93.6905 172.813 91.4479 176.666 89.1345 180.469C86.8265 184.277 84.5532 188.107 82.1879 191.875L75.1465 203.214L67.9772 214.463C63.2385 221.991 58.2999 229.379 53.4452 236.825C48.6159 244.291 43.5785 251.609 38.6319 258.99L37.1559 251.982C43.3159 255.605 49.5105 259.167 55.6385 262.837L74.0372 273.831L92.4345 284.827L110.768 295.93L129.053 307.111C135.152 310.83 141.221 314.599 147.28 318.389L165.472 329.723C171.548 333.481 177.591 337.297 183.612 341.147L177.729 342.623L183.229 333.999L188.744 325.381L199.961 308.257C203.775 302.594 207.553 296.913 211.411 291.274C215.276 285.642 219.157 280.021 223.171 274.475C220.224 280.653 217.141 286.75 214.045 292.839C210.943 298.923 207.761 304.965 204.612 311.019L194.945 329.062L190.019 338.03L185.077 346.986L183.051 350.657L179.195 348.462C172.983 344.927 166.795 341.355 160.639 337.729L142.136 326.906C135.964 323.309 129.801 319.694 123.669 316.026L105.26 305.047L86.8985 293.997L68.6025 282.83L50.3065 271.667C44.2039 267.955 38.1665 264.131 32.0932 260.366L27.5372 257.542L30.6185 253.361C35.8879 246.203 41.0665 238.985 46.4532 231.914C51.8145 224.822 57.0919 217.673 62.5705 210.663L70.7239 200.106L79.0079 189.641C81.7505 186.138 84.5852 182.702 87.3852 179.239C90.1799 175.775 93.0439 172.358 95.9212 168.951Z" fill="#009157"/>
<path d="M252.744 223.669C255.615 218.331 258.503 213.001 261.463 207.716C264.417 202.427 267.333 197.115 270.345 191.864L279.327 176.072L288.444 160.367C294.477 149.868 300.719 139.5 306.875 129.079C313.003 118.639 319.347 108.335 325.596 97.972L327.255 104.783C321.456 101.449 315.623 98.1787 309.857 94.796L292.541 84.6693L275.224 74.5413L257.973 64.3053L240.771 53.992C235.031 50.5587 229.323 47.0787 223.623 43.5787L206.509 33.1093C200.793 29.6387 195.111 26.1133 189.449 22.5507L195.292 21.0653L192.457 25.1733C191.507 26.5387 190.584 27.9227 189.608 29.2747L183.721 37.364C181.688 40.016 179.685 42.688 177.605 45.3133C175.516 47.9333 173.412 50.5453 171.177 53.0787C172.349 49.9093 173.655 46.8213 174.973 43.74C176.301 40.6653 177.707 37.636 179.08 34.588L183.419 25.5747C184.145 24.0747 184.928 22.608 185.68 21.1227L187.957 16.68L189.844 13L193.8 15.1947C199.649 18.44 205.475 21.7227 211.271 25.06L228.689 35.0133C234.499 38.3213 240.301 41.6493 246.073 45.0253L263.397 55.136L280.679 65.3227L297.893 75.62L315.107 85.9173C320.849 89.3413 326.528 92.8773 332.24 96.3533L336.599 99.004L333.899 103.165C327.315 113.319 320.824 123.532 314.119 133.609C307.439 143.703 300.847 153.852 294.047 163.871L283.912 178.94L273.643 193.925C270.237 198.932 266.737 203.879 263.275 208.849C259.819 213.823 256.287 218.751 252.744 223.669Z" fill="#009157"/>
<circle cx="179" cy="166" r="75" fill="#009157"/>
<circle cx="187" cy="175" r="75" fill="#00EB8D" fill-opacity="0.8"/>
</svg>
