<svg xmlns="http://www.w3.org/2000/svg" viewBox="0 0 128 128" width="100px" height="100px"><path fill="#fff" d="M114 4.5L104 14.5 94 4.5 84 14.5 74 4.5 64 14.5 54 4.5 44 14.5 34 4.5 34 123.5 44 113.5 54 123.5 64 113.5 74 123.5 84 113.5 94 123.5 104 113.5 114 123.5z"/><path fill="#444b54" d="M34 27.2c-1.7 0-3-1.3-3-3V4.5c0-1.7 1.3-3 3-3s3 1.3 3 3v19.7C37 25.9 35.7 27.2 34 27.2zM114 126.5c-.8 0-1.5-.3-2.1-.9l-7.9-7.9-7.9 7.9c-1.2 1.2-3.1 1.2-4.2 0l-7.9-7.9-7.9 7.9c-1.2 1.2-3.1 1.2-4.2 0l-7.9-7.9-7.9 7.9c-1.2 1.2-3.1 1.2-4.2 0l-7.9-7.9-7.9 7.9c-.9.9-2.1 1.1-3.3.7-1.1-.5-1.9-1.6-1.9-2.8v-16.7c0-1.7 1.3-3 3-3s3 1.3 3 3v9.5l4.9-4.9c1.2-1.2 3.1-1.2 4.2 0l7.9 7.9 7.9-7.9c1.2-1.2 3.1-1.2 4.2 0l7.9 7.9 7.9-7.9c1.2-1.2 3.1-1.2 4.2 0l7.9 7.9 7.9-7.9c1.2-1.2 3.1-1.2 4.2 0l4.9 4.9V11.7l-4.9 4.9c-1.2 1.2-3.1 1.2-4.2 0L94 8.7l-7.9 7.9c-1.2 1.2-3.1 1.2-4.2 0L74 8.7l-7.9 7.9c-1.2 1.2-3.1 1.2-4.2 0l-10-10c-1.2-1.2-1.2-3.1 0-4.2 1.2-1.2 3.1-1.2 4.2 0l7.9 7.9 7.9-7.9c1.2-1.2 3.1-1.2 4.2 0l7.9 7.9 7.9-7.9c1.2-1.2 3.1-1.2 4.2 0l7.9 7.9 7.9-7.9c.9-.9 2.1-1.1 3.3-.7 1.1.5 1.9 1.6 1.9 2.8v119c0 1.2-.7 2.3-1.9 2.8C114.8 126.4 114.4 126.5 114 126.5z"/><path fill="#71c2ff" d="M44,32c-18.2,0-33,14.8-33,33s14.8,33,33,33s33-14.8,33-33S62.2,32,44,32z"/><g><path fill="#fff" d="M42,76C42,76,42,76,42,76c-1,0-1.8-0.5-2.4-1.2l-6.5-8.5c-1-1.3-0.7-3.2,0.6-4.2c1.3-1,3.2-0.7,4.2,0.6l4.1,5.5l9.7-12.1c1-1.3,2.9-1.5,4.2-0.5c1.3,1,1.5,2.9,0.5,4.2L44.3,74.9C43.8,75.6,42.9,76,42,76z"/></g></svg>