<?xml version="1.0" encoding="UTF-8"?>
<svg width="34px" height="34px" viewBox="0 0 34 34" version="1.1" xmlns="http://www.w3.org/2000/svg" xmlns:xlink="http://www.w3.org/1999/xlink">
    <!-- Generator: sketchtool 50.2 (55047) - http://www.bohemiancoding.com/sketch -->
    <title>71B34841-8962-4748-B06E-5F9DAA324BAA</title>
    <desc>Created with sketchtool.</desc>
    <defs></defs>
    <g id="Page-1" stroke="none" stroke-width="1" fill="none" fill-rule="evenodd">
        <g id="wallets" transform="translate(-597.000000, -696.000000)">
            <g id="Logo/Fill/Coloured/Bitcoin" transform="translate(596.000000, 695.000000)">
                <g id="Bitcoin" transform="translate(1.500000, 1.500000)">
                    <g fill-rule="nonzero" id="Page-1">
                        <g>
                            <g id="crypto">
                                <g id="Bitcoin">
                                    <g id="Group">
                                        <circle id="Oval" fill="#F5B300" cx="16.4961923" cy="16.5" r="16.4961923"></circle>
                                        <path d="M12.0208846,8.06976923 C12.5933077,8.22588462 13.1657308,8.32996154 13.7381538,8.48607692 C14.3105769,8.64219231 14.883,8.74626923 15.4554231,8.90238462 C15.6115385,8.95442308 15.6635769,8.90238462 15.7156154,8.74626923 C15.9237692,7.86161538 16.1319231,7.029 16.3400769,6.14434615 C16.3921154,5.98823077 16.4441538,5.93619231 16.6002692,5.98823077 C17.1206538,6.14434615 17.589,6.24842308 18.1093846,6.3525 C18.2655,6.40453846 18.2655,6.45657692 18.2134615,6.56065385 C18.0053077,7.39326923 17.7971538,8.27792308 17.589,9.11053846 C17.589,9.16257692 17.589,9.21461538 17.5369615,9.31869231 C17.9532692,9.42276923 18.4216154,9.52684615 18.8379231,9.63092308 C18.8899615,9.63092308 18.942,9.52684615 18.9940385,9.47480769 C19.1501538,8.79830769 19.3062692,8.17384615 19.5144231,7.49734615 L19.6705385,6.87288462 C19.6705385,6.76880769 19.7225769,6.71676923 19.8266538,6.76880769 C20.3470385,6.92492308 20.8674231,7.029 21.4398462,7.18511538 C21.4918846,7.18511538 21.4918846,7.23715385 21.5439231,7.23715385 C21.3878077,7.91365385 21.2316923,8.53811538 21.0755769,9.16257692 C21.0235385,9.42276923 20.9715,9.68296154 20.8674231,9.94315385 C20.8153846,10.0992692 20.8674231,10.1513077 21.0235385,10.2033462 L22.7408077,10.9839231 C23.2611923,11.2961538 23.7295385,11.7124615 24.0938077,12.2328462 C24.5621538,13.0134231 24.6141923,13.8460385 24.4060385,14.6786538 C24.2499231,15.2510769 24.0417692,15.7714615 23.6254615,16.1877692 C23.3132308,16.5 22.8969231,16.7081538 22.4806154,16.8642692 C22.4285769,16.8642692 22.3765385,16.9163077 22.2724615,16.9163077 C22.4806154,17.0724231 22.6887692,17.1765 22.8969231,17.3326154 C23.5213846,17.8009615 23.9376923,18.3733846 24.1458462,19.1019231 C24.2499231,19.6743462 24.1978846,20.2988077 24.0417692,20.8712308 C23.8336154,21.5997692 23.5734231,22.2242308 23.1050769,22.7966538 C22.5326538,23.4731538 21.8041154,23.8374231 20.9715,23.9415 C19.8786923,24.0976154 18.8379231,23.9935385 17.7971538,23.8374231 C17.6410385,23.7853846 17.5369615,23.8374231 17.4849231,23.9935385 C17.2767692,24.8261538 17.0686154,25.7108077 16.8604615,26.5434231 C16.8084231,26.7515769 16.8084231,26.8036154 16.5482308,26.6995385 C16.0798846,26.5954615 15.5595,26.4393462 15.0911538,26.3352692 C14.9350385,26.2832308 14.9350385,26.2311923 14.9870769,26.1271154 C15.1952308,25.2424615 15.4033846,24.3578077 15.6635769,23.5251923 C15.6635769,23.4211154 15.7156154,23.3690769 15.6115385,23.3170385 C15.1952308,23.2129615 14.7789231,23.1088846 14.3105769,23.0048077 C14.2065,23.4731538 14.0503846,23.9415 13.9463077,24.4098462 C13.8422308,24.8781923 13.6861154,25.3465385 13.5820385,25.8148846 C13.53,25.9189615 13.53,25.971 13.3738846,25.9189615 C12.8535,25.7628462 12.3331154,25.6587692 11.8127308,25.5546923 C11.6566154,25.5026538 11.6566154,25.4506154 11.7086538,25.3465385 C11.9168077,24.4618846 12.1249615,23.5772308 12.3851538,22.7446154 C12.3851538,22.6925769 12.4371923,22.6405385 12.4371923,22.5364615 C11.2403077,22.2242308 10.0434231,21.912 8.7945,21.5997692 C8.89857692,21.3916154 8.95061538,21.2355 9.05469231,21.0273462 C9.26284615,20.559 9.471,20.0906538 9.62711538,19.6743462 C9.67915385,19.5182308 9.73119231,19.5182308 9.88730769,19.5182308 C10.2515769,19.6223077 10.6678846,19.7263846 11.0321538,19.7784231 C11.4484615,19.8825 11.7606923,19.6743462 11.8127308,19.3100769 C12.4892308,16.6561154 13.1657308,14.0021538 13.7901923,11.2961538 C13.8942692,10.8798462 13.6340769,10.4115 13.1657308,10.2553846 C12.6973846,10.0992692 12.2290385,9.99519231 11.8127308,9.89111538 C11.7086538,9.89111538 11.6566154,9.83907692 11.7086538,9.735 C11.8647692,9.16257692 12.0208846,8.53811538 12.177,7.96569231 C11.9688462,8.12180769 11.9688462,8.12180769 12.0208846,8.06976923 Z M14.6748462,20.9232692 C14.7268846,20.9232692 14.7789231,20.9753077 14.7789231,20.9753077 C15.6115385,21.1834615 16.4961923,21.4436538 17.3808462,21.4956923 C18.0053077,21.5477308 18.5777308,21.5477308 19.1501538,21.3395769 C20.1388846,21.0273462 20.5551923,19.7263846 19.9827692,18.8937692 C19.7225769,18.4774615 19.3062692,18.2172692 18.8899615,17.9570769 C17.9532692,17.4366923 16.8604615,17.2285385 15.8196923,17.0203846 C15.6635769,16.9683462 15.6635769,17.0203846 15.6115385,17.1765 C15.5074615,17.6968846 15.3513462,18.1652308 15.2472692,18.6856154 C15.0391154,19.4141538 14.883,20.1426923 14.6748462,20.9232692 Z M19.0460769,15.6153462 C19.1501538,15.6153462 19.4103462,15.5633077 19.6185,15.5112692 C20.6072308,15.3031154 21.1276154,14.1582692 20.6072308,13.2736154 C20.3470385,12.8052692 19.8786923,12.4930385 19.4103462,12.2848846 C18.6818077,11.9726538 17.9532692,11.8165385 17.1726923,11.6083846 C17.0165769,11.5563462 16.9645385,11.6083846 16.9125,11.7645 C16.6523077,12.8573077 16.3921154,13.8980769 16.0798846,14.9908846 C16.0278462,15.0949615 16.0798846,15.147 16.1839615,15.1990385 C16.3921154,15.2510769 16.5482308,15.3031154 16.7563846,15.3551538 C17.5369615,15.4592308 18.2134615,15.6153462 19.0460769,15.6153462 Z" id="Shape" fill="#FFFFFF"></path>
                                    </g>
                                </g>
                            </g>
                        </g>
                    </g>
                </g>
            </g>
        </g>
    </g>
</svg>