<svg xmlns="http://www.w3.org/2000/svg" viewBox="0 0 128 128" width="100px" height="100px"><path fill="#fff" d="M64 9A55 55 0 1 0 64 119A55 55 0 1 0 64 9Z"/><path fill="#3f4a54" d="M64,122C32,122,6,96,6,64S32,6,64,6s58,26,58,58S96,122,64,122z M64,12c-28.7,0-52,23.3-52,52s23.3,52,52,52 s52-23.3,52-52S92.7,12,64,12z"/><path fill="#00EB8D" d="M78,56.5C78,50.7,73.3,46,67.5,46H66v-2c0-1.7-1.3-3-3-3s-3,1.3-3,3v2h-7c-1.7,0-3,1.3-3,3 c0,1.3,0.8,2.4,2,2.8v24.3c-1.2,0.4-2,1.5-2,2.8c0,1.7,1.3,3,3,3h7v2c0,1.7,1.3,3,3,3s3-1.3,3-3v-2h1.5C73.3,82,78,77.3,78,71.5 c0-2.9-1.2-5.6-3.2-7.5C76.8,62.1,78,59.4,78,56.5z M67.5,76H58v-9h9.5c2.5,0,4.5,2,4.5,4.5S70,76,67.5,76z M67.5,61H58v-9h9.5 c2.5,0,4.5,2,4.5,4.5S70,61,67.5,61z"/></svg>