<?xml version="1.0" encoding="UTF-8"?>
<svg width="48px" height="48px" viewBox="0 0 48 48" version="1.1" xmlns="http://www.w3.org/2000/svg" xmlns:xlink="http://www.w3.org/1999/xlink">
    <!-- Generator: sketchtool 50.2 (55047) - http://www.bohemiancoding.com/sketch -->
    <title>EB957BA3-B0B6-42CD-9393-F34E69A08501</title>
    <desc>Created with sketchtool.</desc>
    <defs></defs>
    <g id="Symbols" stroke="none" stroke-width="1" fill="none" fill-rule="evenodd">
        <g id="Logo/Fill/Coloured/Ethereum" fill-rule="nonzero">
            <g id="Ethereum" transform="translate(2.000000, 2.000000)">
                <g id="Layer_1">
                    <path d="M22,44 C9.865625,44 0,34.134375 0,22 C0,9.865625 9.865625,0 22,0 C34.134375,0 44,9.865625 44,22 C44,34.134375 34.134375,44 22,44 Z" id="Shape" fill="#5060A2"></path>
                    <polygon id="Shape" fill="#FFFFFF" points="22.4125 29.975 22.4125 37.778125 32.071875 24.2"></polygon>
                    <polygon id="Shape" fill="#FFFFFF" points="31.728125 21.690625 22.4125 6.221875 22.4125 17.4625"></polygon>
                    <polygon id="Shape" fill="#FFFFFF" points="22.4125 18.321875 22.4125 27.946875 31.659375 22.55"></polygon>
                    <polygon id="Shape" fill="#FFFFFF" points="12.30625 21.690625 21.5875 6.221875 21.5875 17.4625"></polygon>
                    <polygon id="Shape" fill="#FFFFFF" points="21.5875 18.321875 21.5875 27.946875 12.340625 22.55"></polygon>
                    <polygon id="Shape" fill="#FFFFFF" points="21.5875 29.975 21.5875 37.778125 11.928125 24.2"></polygon>
                </g>
            </g>
        </g>
    </g>
</svg>