<svg fill="#000000" xmlns="http://www.w3.org/2000/svg" viewBox="0 0 50 50" width="50px" height="50px"><path d="M 7 4 C 5.346 4 4 5.346 4 7 L 4 43 C 4 44.654 5.346 46 7 46 L 43 46 C 44.654 46 46 44.654 46 43 L 46 7 C 46 5.346 44.654 4 43 4 L 7 4 z M 15 13 L 20 13 L 20 20 L 13 20 L 13 15 C 13 13.895 13.895 13 15 13 z M 22 13 L 28 13 L 28 20 L 22 20 L 22 13 z M 30 13 L 35 13 C 36.105 13 37 13.895 37 15 L 37 20 L 30 20 L 30 13 z M 13 22 L 20 22 L 20 28 L 13 28 L 13 22 z M 22 22 L 28 22 L 28 28 L 22 28 L 22 22 z M 30 22 L 37 22 L 37 28 L 30 28 L 30 22 z M 13 30 L 20 30 L 20 37 L 15 37 C 13.895 37 13 36.105 13 35 L 13 30 z M 22 30 L 28 30 L 28 37 L 22 37 L 22 30 z M 30 30 L 37 30 L 37 35 C 37 36.105 36.105 37 35 37 L 30 37 L 30 30 z"/></svg>